<svg xmlns="http://www.w3.org/2000/svg" style="display:none;">
  <symbol id="icon-wechat" viewBox="0 0 24 24">
    <path d="M12 2C6.477 2 2 5.866 2 10.5c0 2.574 1.618 4.907 4.309 6.309-.005.69-.188 2.362-1.02 4.004 0 0-.005.012 0 .01 0 .162.114.308.273.354.642.197 1.864.515 4.2.515 5.523 0 7.063-1.23 7.63-1.67.313-.237.49-.587.49-.96 0-.225-.08-.441-.225-.618-.046-.056-1.137-1.384-1.137-1.384-.4-.478-.864-.66-1.365-.66-.66 0-.992.286-1.226.553-.103.107-.197.247-.28.41-.064.128-.113.268-.15.406-.049.18-.062.356-.038.523.125.887.594 1.776 1.454 2.301.327.194.653.29.982.29.4 0 .78-.137 1.085-.406.783-.723 1.453-1.904 1.613-3.107.1-.737.05-1.816-.115-2.489-.334-1.51-1.366-2.666-2.736-3.333-.972-.47-2.175-.727-3.224-.69-.298.007-.593.018-.875.034-.695.034-1.467.123-2.06.292A8.086 8.086 0 0 1 7.5 10.5C7.5 8.29 9.76 6.46 12 6.46c1.815 0 3.31.894 4.188 2.266.285.417.29.99.011 1.435-.284.446-.812.704-1.36.654-.969-.086-1.78-.57-2.385-1.255-.172-.188-.41-.303-.673-.303-.13 0-.255.026-.37.075-.638.268-1.224.71-1.705 1.23-.6.644-1.03 1.445-1.25 2.32-.068.267-.1.55-.1.835 0 .13.01.26.03.39.055.4.178.787.37 1.15.113.205.248.4.404.57.05.053.102.106.156.156.28.262.64.392 1.01.37.224-.013.444-.048.656-.106.369-.1.706-.28.998-.528.127-.107.247-.225.36-.348.1-.108.19-.226.276-.344.064-.088.121-.18.18-.27.074-.121.14-.246.196-.376.17-.376.3-.776.38-1.19.038-.2.066-.4.082-.606.01-.125.016-.25.016-.377 0-.286-.02-.57-.056-.85-.027-.206-.07-.41-.13-.61-.068-.22-.166-.432-.29-.63-.085-.136-.193-.262-.32-.372-.11-.095-.24-.176-.377-.236-.08-.03-.162-.04-.245-.04-.112 0-.222.024-.325.07-.1.043-.193.108-.27.19-.16.16-.254.38-.254.61 0 .3.17.57.434.703.12.056.25.083.385.083.09 0 .18-.012.265-.034.047-.01.095-.027.14-.047.036-.016.07-.04.104-.066.05-.04.097-.087.14-.14.052-.065.103-.13.12-.24.07-.48-.16-.97-.614-1.166-.25-.1-.525-.13-.8-.09-.23.037-.443.14-.61.3-.16.153-.282.34-.353.55-.034.093-.048.19-.044.285.01.236.09.46.225.65.28.38.75.61 1.25.61.19 0 .38-.03.56-.1.236-.092.44-.236.61-.415.07-.085.12-.18.16-.282.03-.07.046-.144.05-.218.008-.18-.048-.36-.15-.51-.12-.19-.29-.33-.49-.4-.086-.03-.174-.05-.265-.055-.16-.01-.32 0-.47.03-.11.02-.22.06-.325.12-.176.1-.357.19-.536.29A3.489 3.489 0 0 1 12 10.5c-.14 0-.28-.01-.42-.02Z" fill="currentColor"/>
  </symbol>
  <symbol id="icon-weibo" viewBox="0 0 24 24">
    <path d="M4 6.5C4 5.12 5.12 4 6.5 4h11c1.38 0 2.5 1.12 2.5 2.5v11c0 1.38-1.12 2.5-2.5 2.5h-11C5.12 20 4 18.88 4 17.5v-11ZM3 6.5C3 4.57 4.57 3 6.5 3h11C19.43 3 21 4.57 21 6.5v11c0 1.93-1.57 3.5-3.5 3.5h-11C4.57 21 3 19.43 3 17.5v-11Zm4.75 7.5c.41 0 .75-.34.75-.75S8.16 12.5 7.75 12.5 7 12.84 7 13.25s.34.75.75.75Zm2.5 0c.41 0 .75-.34.75-.75S11.66 12.5 11.25 12.5 10.5 12.84 10.5 13.25s.34.75.75.75Zm2.5 0c.41 0 .75-.34.75-.75S14.16 12.5 13.75 12.5 13 12.84 13 13.25s.34.75.75.75Z" fill="currentColor"/>
  </symbol>
  <symbol id="icon-zhihu" viewBox="0 0 24 24">
    <path d="M12 3.25C7.05 3.25 3 7.3 3 12.25c0 4.6 3.27 8.43 7.63 9.27.56.1.77-.24.77-.53 0-.27-.01-1-.01-1.96-3.1.67-3.76-1.5-3.76-1.5-.51-1.3-1.24-1.66-1.24-1.66-1.02-.7.08-.69.08-.69 1.13.08 1.72 1.16 1.72 1.16 1.01 1.73 2.64 1.23 3.28.94.1-.73.39-1.23.71-1.52-2.48-.28-5.09-1.24-5.09-5.53 0-1.22.44-2.22 1.16-3-.12-.28-.5-1.41.11-2.94 0 0 .95-.3 3.1 1.15.9-.25 1.86-.38 2.82-.38.96 0 1.92.13 2.82.38 2.15-1.45 3.1-1.15 3.1-1.15.61 1.53.23 2.66.11 2.94.72.78 1.16 1.78 1.16 3 0 4.3-2.62 5.25-5.11 5.52.4.35.75 1.05.75 2.12 0 1.53-.01 2.76-.01 3.14 0 .29.21.63.77.53C17.73 20.68 21 16.85 21 12.25 21 7.3 16.95 3.25 12 3.25Z" fill="currentColor"/>
  </symbol>
</svg>
